<svg width="41" height="40" viewBox="0 0 41 40" fill="none" xmlns="http://www.w3.org/2000/svg">
<path d="M6.34813 4.87274H4.8728V6.34807H6.34813V4.87274Z" fill="#F9F7F8"/>
<path d="M6.34813 6.34805H4.8728V7.82338H6.34813V6.34805Z" fill="#F9F7F8"/>
<path d="M6.34813 7.82339H4.8728V9.29873H6.34813V7.82339Z" fill="#F9F7F8"/>
<path d="M6.34813 9.29871H4.8728V10.774H6.34813V9.29871Z" fill="#F9F7F8"/>
<path d="M6.34813 10.774H4.8728V12.2494H6.34813V10.774Z" fill="#F9F7F8"/>
<path d="M6.34813 12.2494H4.8728V13.7247H6.34813V12.2494Z" fill="#F9F7F8"/>
<path d="M6.34813 13.7247H4.8728V15.2H6.34813V13.7247Z" fill="#F9F7F8"/>
<path d="M6.34813 16.6754H4.8728V18.1507H6.34813V16.6754Z" fill="#F9F7F8"/>
<path d="M6.34813 19.6261H4.8728V21.1014H6.34813V19.6261Z" fill="#F9F7F8"/>
<path d="M6.34813 22.5767H4.8728V24.0521H6.34813V22.5767Z" fill="#F9F7F8"/>
<path d="M6.34813 25.5274H4.8728V27.0028H6.34813V25.5274Z" fill="#F9F7F8"/>
<path d="M6.34813 27.0027H4.8728V28.4781H6.34813V27.0027Z" fill="#F9F7F8"/>
<path d="M6.34813 28.4781H4.8728V29.9534H6.34813V28.4781Z" fill="#F9F7F8"/>
<path d="M6.34813 29.9534H4.8728V31.4287H6.34813V29.9534Z" fill="#F9F7F8"/>
<path d="M6.34813 31.4287H4.8728V32.904H6.34813V31.4287Z" fill="#F9F7F8"/>
<path d="M6.34813 32.9041H4.8728V34.3794H6.34813V32.9041Z" fill="#F9F7F8"/>
<path d="M6.34813 34.3794H4.8728V35.8547H6.34813V34.3794Z" fill="#F9F7F8"/>
<path d="M7.82348 4.87274H6.34814V6.34807H7.82348V4.87274Z" fill="#F9F7F8"/>
<path d="M7.82348 13.7247H6.34814V15.2H7.82348V13.7247Z" fill="#F9F7F8"/>
<path d="M7.82348 16.6754H6.34814V18.1507H7.82348V16.6754Z" fill="#F9F7F8"/>
<path d="M7.82348 19.6261H6.34814V21.1014H7.82348V19.6261Z" fill="#F9F7F8"/>
<path d="M7.82348 21.1014H6.34814V22.5767H7.82348V21.1014Z" fill="#F9F7F8"/>
<path d="M7.82348 22.5767H6.34814V24.0521H7.82348V22.5767Z" fill="#F9F7F8"/>
<path d="M7.82348 25.5274H6.34814V27.0028H7.82348V25.5274Z" fill="#F9F7F8"/>
<path d="M7.82348 34.3794H6.34814V35.8547H7.82348V34.3794Z" fill="#F9F7F8"/>
<path d="M9.29882 4.87274H7.82349V6.34807H9.29882V4.87274Z" fill="#F9F7F8"/>
<path d="M9.29882 7.82339H7.82349V9.29873H9.29882V7.82339Z" fill="#F9F7F8"/>
<path d="M9.29882 9.29871H7.82349V10.774H9.29882V9.29871Z" fill="#F9F7F8"/>
<path d="M9.29882 10.774H7.82349V12.2494H9.29882V10.774Z" fill="#F9F7F8"/>
<path d="M9.29882 13.7247H7.82349V15.2H9.29882V13.7247Z" fill="#F9F7F8"/>
<path d="M9.29882 18.1507H7.82349V19.6261H9.29882V18.1507Z" fill="#F9F7F8"/>
<path d="M9.29882 19.6261H7.82349V21.1014H9.29882V19.6261Z" fill="#F9F7F8"/>
<path d="M9.29882 22.5767H7.82349V24.0521H9.29882V22.5767Z" fill="#F9F7F8"/>
<path d="M9.29882 25.5274H7.82349V27.0028H9.29882V25.5274Z" fill="#F9F7F8"/>
<path d="M9.29882 28.4781H7.82349V29.9534H9.29882V28.4781Z" fill="#F9F7F8"/>
<path d="M9.29882 29.9534H7.82349V31.4287H9.29882V29.9534Z" fill="#F9F7F8"/>
<path d="M9.29882 31.4287H7.82349V32.904H9.29882V31.4287Z" fill="#F9F7F8"/>
<path d="M9.29882 34.3794H7.82349V35.8547H9.29882V34.3794Z" fill="#F9F7F8"/>
<path d="M10.7742 4.87274H9.29883V6.34807H10.7742V4.87274Z" fill="#F9F7F8"/>
<path d="M10.7742 7.82339H9.29883V9.29873H10.7742V7.82339Z" fill="#F9F7F8"/>
<path d="M10.7742 9.29871H9.29883V10.774H10.7742V9.29871Z" fill="#F9F7F8"/>
<path d="M10.7742 10.774H9.29883V12.2494H10.7742V10.774Z" fill="#F9F7F8"/>
<path d="M10.7742 13.7247H9.29883V15.2H10.7742V13.7247Z" fill="#F9F7F8"/>
<path d="M10.7742 18.1507H9.29883V19.6261H10.7742V18.1507Z" fill="#F9F7F8"/>
<path d="M10.7742 21.1014H9.29883V22.5767H10.7742V21.1014Z" fill="#F9F7F8"/>
<path d="M10.7742 25.5274H9.29883V27.0028H10.7742V25.5274Z" fill="#F9F7F8"/>
<path d="M10.7742 28.4781H9.29883V29.9534H10.7742V28.4781Z" fill="#F9F7F8"/>
<path d="M10.7742 29.9534H9.29883V31.4287H10.7742V29.9534Z" fill="#F9F7F8"/>
<path d="M10.7742 31.4287H9.29883V32.904H10.7742V31.4287Z" fill="#F9F7F8"/>
<path d="M10.7742 34.3794H9.29883V35.8547H10.7742V34.3794Z" fill="#F9F7F8"/>
<path d="M12.2494 4.87274H10.774V6.34807H12.2494V4.87274Z" fill="#F9F7F8"/>
<path d="M12.2494 7.82339H10.774V9.29873H12.2494V7.82339Z" fill="#F9F7F8"/>
<path d="M12.2494 9.29871H10.774V10.774H12.2494V9.29871Z" fill="#F9F7F8"/>
<path d="M12.2494 10.774H10.774V12.2494H12.2494V10.774Z" fill="#F9F7F8"/>
<path d="M12.2494 13.7247H10.774V15.2H12.2494V13.7247Z" fill="#F9F7F8"/>
<path d="M12.2494 21.1014H10.774V22.5767H12.2494V21.1014Z" fill="#F9F7F8"/>
<path d="M12.2494 22.5767H10.774V24.0521H12.2494V22.5767Z" fill="#F9F7F8"/>
<path d="M12.2494 25.5274H10.774V27.0028H12.2494V25.5274Z" fill="#F9F7F8"/>
<path d="M12.2494 28.4781H10.774V29.9534H12.2494V28.4781Z" fill="#F9F7F8"/>
<path d="M12.2494 29.9534H10.774V31.4287H12.2494V29.9534Z" fill="#F9F7F8"/>
<path d="M12.2494 31.4287H10.774V32.904H12.2494V31.4287Z" fill="#F9F7F8"/>
<path d="M12.2494 34.3794H10.774V35.8547H12.2494V34.3794Z" fill="#F9F7F8"/>
<path d="M13.7247 4.87274H12.2494V6.34807H13.7247V4.87274Z" fill="#F9F7F8"/>
<path d="M13.7247 13.7247H12.2494V15.2H13.7247V13.7247Z" fill="#F9F7F8"/>
<path d="M13.7247 16.6754H12.2494V18.1507H13.7247V16.6754Z" fill="#F9F7F8"/>
<path d="M13.7247 18.1507H12.2494V19.6261H13.7247V18.1507Z" fill="#F9F7F8"/>
<path d="M13.7247 19.6261H12.2494V21.1014H13.7247V19.6261Z" fill="#F9F7F8"/>
<path d="M13.7247 21.1014H12.2494V22.5767H13.7247V21.1014Z" fill="#F9F7F8"/>
<path d="M13.7247 25.5274H12.2494V27.0028H13.7247V25.5274Z" fill="#F9F7F8"/>
<path d="M13.7247 34.3794H12.2494V35.8547H13.7247V34.3794Z" fill="#F9F7F8"/>
<path d="M15.2002 4.87274H13.7249V6.34807H15.2002V4.87274Z" fill="#F9F7F8"/>
<path d="M15.2002 6.34805H13.7249V7.82338H15.2002V6.34805Z" fill="#F9F7F8"/>
<path d="M15.2002 7.82339H13.7249V9.29873H15.2002V7.82339Z" fill="#F9F7F8"/>
<path d="M15.2002 9.29871H13.7249V10.774H15.2002V9.29871Z" fill="#F9F7F8"/>
<path d="M15.2002 10.774H13.7249V12.2494H15.2002V10.774Z" fill="#F9F7F8"/>
<path d="M15.2002 12.2494H13.7249V13.7247H15.2002V12.2494Z" fill="#F9F7F8"/>
<path d="M15.2002 13.7247H13.7249V15.2H15.2002V13.7247Z" fill="#F9F7F8"/>
<path d="M15.2002 19.6261H13.7249V21.1014H15.2002V19.6261Z" fill="#F9F7F8"/>
<path d="M15.2002 22.5767H13.7249V24.0521H15.2002V22.5767Z" fill="#F9F7F8"/>
<path d="M15.2002 25.5274H13.7249V27.0028H15.2002V25.5274Z" fill="#F9F7F8"/>
<path d="M15.2002 27.0027H13.7249V28.4781H15.2002V27.0027Z" fill="#F9F7F8"/>
<path d="M15.2002 28.4781H13.7249V29.9534H15.2002V28.4781Z" fill="#F9F7F8"/>
<path d="M15.2002 29.9534H13.7249V31.4287H15.2002V29.9534Z" fill="#F9F7F8"/>
<path d="M15.2002 31.4287H13.7249V32.904H15.2002V31.4287Z" fill="#F9F7F8"/>
<path d="M15.2002 32.9041H13.7249V34.3794H15.2002V32.9041Z" fill="#F9F7F8"/>
<path d="M15.2002 34.3794H13.7249V35.8547H15.2002V34.3794Z" fill="#F9F7F8"/>
<path d="M16.6754 16.6754H15.2001V18.1507H16.6754V16.6754Z" fill="#F9F7F8"/>
<path d="M16.6754 22.5767H15.2001V24.0521H16.6754V22.5767Z" fill="#F9F7F8"/>
<path d="M18.1507 9.29871H16.6754V10.774H18.1507V9.29871Z" fill="#F9F7F8"/>
<path d="M18.1507 10.774H16.6754V12.2494H18.1507V10.774Z" fill="#F9F7F8"/>
<path d="M18.1507 13.7247H16.6754V15.2H18.1507V13.7247Z" fill="#F9F7F8"/>
<path d="M18.1507 18.1507H16.6754V19.6261H18.1507V18.1507Z" fill="#F9F7F8"/>
<path d="M18.1507 19.6261H16.6754V21.1014H18.1507V19.6261Z" fill="#F9F7F8"/>
<path d="M18.1507 21.1014H16.6754V22.5767H18.1507V21.1014Z" fill="#F9F7F8"/>
<path d="M18.1507 22.5767H16.6754V24.0521H18.1507V22.5767Z" fill="#F9F7F8"/>
<path d="M18.1507 24.052H16.6754V25.5273H18.1507V24.052Z" fill="#F9F7F8"/>
<path d="M18.1507 25.5274H16.6754V27.0028H18.1507V25.5274Z" fill="#F9F7F8"/>
<path d="M18.1507 27.0027H16.6754V28.4781H18.1507V27.0027Z" fill="#F9F7F8"/>
<path d="M18.1507 32.9041H16.6754V34.3794H18.1507V32.9041Z" fill="#F9F7F8"/>
<path d="M18.1507 34.3794H16.6754V35.8547H18.1507V34.3794Z" fill="#F9F7F8"/>
<path d="M19.6262 4.87274H18.1509V6.34807H19.6262V4.87274Z" fill="#F9F7F8"/>
<path d="M19.6262 6.34805H18.1509V7.82338H19.6262V6.34805Z" fill="#F9F7F8"/>
<path d="M19.6262 7.82339H18.1509V9.29873H19.6262V7.82339Z" fill="#F9F7F8"/>
<path d="M19.6262 9.29871H18.1509V10.774H19.6262V9.29871Z" fill="#F9F7F8"/>
<path d="M19.6262 15.2H18.1509V16.6753H19.6262V15.2Z" fill="#F9F7F8"/>
<path d="M19.6262 16.6754H18.1509V18.1507H19.6262V16.6754Z" fill="#F9F7F8"/>
<path d="M19.6262 18.1507H18.1509V19.6261H19.6262V18.1507Z" fill="#F9F7F8"/>
<path d="M19.6262 21.1014H18.1509V22.5767H19.6262V21.1014Z" fill="#F9F7F8"/>
<path d="M19.6262 24.052H18.1509V25.5273H19.6262V24.052Z" fill="#F9F7F8"/>
<path d="M19.6262 28.4781H18.1509V29.9534H19.6262V28.4781Z" fill="#F9F7F8"/>
<path d="M19.6262 29.9534H18.1509V31.4287H19.6262V29.9534Z" fill="#F9F7F8"/>
<path d="M19.6262 32.9041H18.1509V34.3794H19.6262V32.9041Z" fill="#F9F7F8"/>
<path d="M21.1014 4.87274H19.6261V6.34807H21.1014V4.87274Z" fill="#F9F7F8"/>
<path d="M21.1014 9.29871H19.6261V10.774H21.1014V9.29871Z" fill="#F9F7F8"/>
<path d="M21.1014 10.774H19.6261V12.2494H21.1014V10.774Z" fill="#F9F7F8"/>
<path d="M21.1014 12.2494H19.6261V13.7247H21.1014V12.2494Z" fill="#F9F7F8"/>
<path d="M21.1014 13.7247H19.6261V15.2H21.1014V13.7247Z" fill="#F9F7F8"/>
<path d="M21.1014 15.2H19.6261V16.6753H21.1014V15.2Z" fill="#F9F7F8"/>
<path d="M21.1014 19.6261H19.6261V21.1014H21.1014V19.6261Z" fill="#F9F7F8"/>
<path d="M21.1014 25.5274H19.6261V27.0028H21.1014V25.5274Z" fill="#F9F7F8"/>
<path d="M21.1014 28.4781H19.6261V29.9534H21.1014V28.4781Z" fill="#F9F7F8"/>
<path d="M21.1014 29.9534H19.6261V31.4287H21.1014V29.9534Z" fill="#F9F7F8"/>
<path d="M22.5768 4.87274H21.1014V6.34807H22.5768V4.87274Z" fill="#F9F7F8"/>
<path d="M22.5768 9.29871H21.1014V10.774H22.5768V9.29871Z" fill="#F9F7F8"/>
<path d="M22.5768 10.774H21.1014V12.2494H22.5768V10.774Z" fill="#F9F7F8"/>
<path d="M22.5768 15.2H21.1014V16.6753H22.5768V15.2Z" fill="#F9F7F8"/>
<path d="M22.5768 19.6261H21.1014V21.1014H22.5768V19.6261Z" fill="#F9F7F8"/>
<path d="M22.5768 24.052H21.1014V25.5273H22.5768V24.052Z" fill="#F9F7F8"/>
<path d="M22.5768 27.0027H21.1014V28.4781H22.5768V27.0027Z" fill="#F9F7F8"/>
<path d="M22.5768 34.3794H21.1014V35.8547H22.5768V34.3794Z" fill="#F9F7F8"/>
<path d="M24.052 4.87274H22.5767V6.34807H24.052V4.87274Z" fill="#F9F7F8"/>
<path d="M24.052 10.774H22.5767V12.2494H24.052V10.774Z" fill="#F9F7F8"/>
<path d="M24.052 12.2494H22.5767V13.7247H24.052V12.2494Z" fill="#F9F7F8"/>
<path d="M24.052 13.7247H22.5767V15.2H24.052V13.7247Z" fill="#F9F7F8"/>
<path d="M24.052 15.2H22.5767V16.6753H24.052V15.2Z" fill="#F9F7F8"/>
<path d="M24.052 16.6754H22.5767V18.1507H24.052V16.6754Z" fill="#F9F7F8"/>
<path d="M24.052 24.052H22.5767V25.5273H24.052V24.052Z" fill="#F9F7F8"/>
<path d="M24.052 27.0027H22.5767V28.4781H24.052V27.0027Z" fill="#F9F7F8"/>
<path d="M24.052 28.4781H22.5767V29.9534H24.052V28.4781Z" fill="#F9F7F8"/>
<path d="M24.052 29.9534H22.5767V31.4287H24.052V29.9534Z" fill="#F9F7F8"/>
<path d="M25.5275 18.1507H24.0521V19.6261H25.5275V18.1507Z" fill="#F9F7F8"/>
<path d="M25.5275 19.6261H24.0521V21.1014H25.5275V19.6261Z" fill="#F9F7F8"/>
<path d="M25.5275 22.5767H24.0521V24.0521H25.5275V22.5767Z" fill="#F9F7F8"/>
<path d="M25.5275 24.052H24.0521V25.5273H25.5275V24.052Z" fill="#F9F7F8"/>
<path d="M25.5275 27.0027H24.0521V28.4781H25.5275V27.0027Z" fill="#F9F7F8"/>
<path d="M25.5275 34.3794H24.0521V35.8547H25.5275V34.3794Z" fill="#F9F7F8"/>
<path d="M27.0028 4.87274H25.5275V6.34807H27.0028V4.87274Z" fill="#F9F7F8"/>
<path d="M27.0028 6.34805H25.5275V7.82338H27.0028V6.34805Z" fill="#F9F7F8"/>
<path d="M27.0028 7.82339H25.5275V9.29873H27.0028V7.82339Z" fill="#F9F7F8"/>
<path d="M27.0028 9.29871H25.5275V10.774H27.0028V9.29871Z" fill="#F9F7F8"/>
<path d="M27.0028 10.774H25.5275V12.2494H27.0028V10.774Z" fill="#F9F7F8"/>
<path d="M27.0028 12.2494H25.5275V13.7247H27.0028V12.2494Z" fill="#F9F7F8"/>
<path d="M27.0028 13.7247H25.5275V15.2H27.0028V13.7247Z" fill="#F9F7F8"/>
<path d="M27.0028 18.1507H25.5275V19.6261H27.0028V18.1507Z" fill="#F9F7F8"/>
<path d="M27.0028 19.6261H25.5275V21.1014H27.0028V19.6261Z" fill="#F9F7F8"/>
<path d="M27.0028 22.5767H25.5275V24.0521H27.0028V22.5767Z" fill="#F9F7F8"/>
<path d="M27.0028 24.052H25.5275V25.5273H27.0028V24.052Z" fill="#F9F7F8"/>
<path d="M27.0028 25.5274H25.5275V27.0028H27.0028V25.5274Z" fill="#F9F7F8"/>
<path d="M27.0028 31.4287H25.5275V32.904H27.0028V31.4287Z" fill="#F9F7F8"/>
<path d="M28.478 4.87274H27.0027V6.34807H28.478V4.87274Z" fill="#F9F7F8"/>
<path d="M28.478 13.7247H27.0027V15.2H28.478V13.7247Z" fill="#F9F7F8"/>
<path d="M28.478 27.0027H27.0027V28.4781H28.478V27.0027Z" fill="#F9F7F8"/>
<path d="M28.478 28.4781H27.0027V29.9534H28.478V28.4781Z" fill="#F9F7F8"/>
<path d="M29.9535 4.87274H28.4781V6.34807H29.9535V4.87274Z" fill="#F9F7F8"/>
<path d="M29.9535 7.82339H28.4781V9.29873H29.9535V7.82339Z" fill="#F9F7F8"/>
<path d="M29.9535 9.29871H28.4781V10.774H29.9535V9.29871Z" fill="#F9F7F8"/>
<path d="M29.9535 10.774H28.4781V12.2494H29.9535V10.774Z" fill="#F9F7F8"/>
<path d="M29.9535 13.7247H28.4781V15.2H29.9535V13.7247Z" fill="#F9F7F8"/>
<path d="M29.9535 16.6754H28.4781V18.1507H29.9535V16.6754Z" fill="#F9F7F8"/>
<path d="M29.9535 21.1014H28.4781V22.5767H29.9535V21.1014Z" fill="#F9F7F8"/>
<path d="M29.9535 24.052H28.4781V25.5273H29.9535V24.052Z" fill="#F9F7F8"/>
<path d="M29.9535 27.0027H28.4781V28.4781H29.9535V27.0027Z" fill="#F9F7F8"/>
<path d="M29.9535 28.4781H28.4781V29.9534H29.9535V28.4781Z" fill="#F9F7F8"/>
<path d="M29.9535 29.9534H28.4781V31.4287H29.9535V29.9534Z" fill="#F9F7F8"/>
<path d="M29.9535 31.4287H28.4781V32.904H29.9535V31.4287Z" fill="#F9F7F8"/>
<path d="M29.9535 34.3794H28.4781V35.8547H29.9535V34.3794Z" fill="#F9F7F8"/>
<path d="M31.4288 4.87274H29.9535V6.34807H31.4288V4.87274Z" fill="#F9F7F8"/>
<path d="M31.4288 7.82339H29.9535V9.29873H31.4288V7.82339Z" fill="#F9F7F8"/>
<path d="M31.4288 9.29871H29.9535V10.774H31.4288V9.29871Z" fill="#F9F7F8"/>
<path d="M31.4288 10.774H29.9535V12.2494H31.4288V10.774Z" fill="#F9F7F8"/>
<path d="M31.4288 13.7247H29.9535V15.2H31.4288V13.7247Z" fill="#F9F7F8"/>
<path d="M31.4288 16.6754H29.9535V18.1507H31.4288V16.6754Z" fill="#F9F7F8"/>
<path d="M31.4288 18.1507H29.9535V19.6261H31.4288V18.1507Z" fill="#F9F7F8"/>
<path d="M31.4288 19.6261H29.9535V21.1014H31.4288V19.6261Z" fill="#F9F7F8"/>
<path d="M31.4288 21.1014H29.9535V22.5767H31.4288V21.1014Z" fill="#F9F7F8"/>
<path d="M31.4288 24.052H29.9535V25.5273H31.4288V24.052Z" fill="#F9F7F8"/>
<path d="M31.4288 25.5274H29.9535V27.0028H31.4288V25.5274Z" fill="#F9F7F8"/>
<path d="M31.4288 27.0027H29.9535V28.4781H31.4288V27.0027Z" fill="#F9F7F8"/>
<path d="M31.4288 28.4781H29.9535V29.9534H31.4288V28.4781Z" fill="#F9F7F8"/>
<path d="M31.4288 31.4287H29.9535V32.904H31.4288V31.4287Z" fill="#F9F7F8"/>
<path d="M31.4288 32.9041H29.9535V34.3794H31.4288V32.9041Z" fill="#F9F7F8"/>
<path d="M32.904 4.87274H31.4287V6.34807H32.904V4.87274Z" fill="#F9F7F8"/>
<path d="M32.904 7.82339H31.4287V9.29873H32.904V7.82339Z" fill="#F9F7F8"/>
<path d="M32.904 9.29871H31.4287V10.774H32.904V9.29871Z" fill="#F9F7F8"/>
<path d="M32.904 10.774H31.4287V12.2494H32.904V10.774Z" fill="#F9F7F8"/>
<path d="M32.904 13.7247H31.4287V15.2H32.904V13.7247Z" fill="#F9F7F8"/>
<path d="M32.904 21.1014H31.4287V22.5767H32.904V21.1014Z" fill="#F9F7F8"/>
<path d="M32.904 24.052H31.4287V25.5273H32.904V24.052Z" fill="#F9F7F8"/>
<path d="M32.904 25.5274H31.4287V27.0028H32.904V25.5274Z" fill="#F9F7F8"/>
<path d="M32.904 27.0027H31.4287V28.4781H32.904V27.0027Z" fill="#F9F7F8"/>
<path d="M32.904 29.9534H31.4287V31.4287H32.904V29.9534Z" fill="#F9F7F8"/>
<path d="M32.904 32.9041H31.4287V34.3794H32.904V32.9041Z" fill="#F9F7F8"/>
<path d="M34.3794 4.87274H32.9041V6.34807H34.3794V4.87274Z" fill="#F9F7F8"/>
<path d="M34.3794 13.7247H32.9041V15.2H34.3794V13.7247Z" fill="#F9F7F8"/>
<path d="M34.3794 19.6261H32.9041V21.1014H34.3794V19.6261Z" fill="#F9F7F8"/>
<path d="M34.3794 21.1014H32.9041V22.5767H34.3794V21.1014Z" fill="#F9F7F8"/>
<path d="M34.3794 22.5767H32.9041V24.0521H34.3794V22.5767Z" fill="#F9F7F8"/>
<path d="M34.3794 25.5274H32.9041V27.0028H34.3794V25.5274Z" fill="#F9F7F8"/>
<path d="M34.3794 31.4287H32.9041V32.904H34.3794V31.4287Z" fill="#F9F7F8"/>
<path d="M34.3794 34.3794H32.9041V35.8547H34.3794V34.3794Z" fill="#F9F7F8"/>
<path d="M35.8548 4.87274H34.3795V6.34807H35.8548V4.87274Z" fill="#F9F7F8"/>
<path d="M35.8548 6.34805H34.3795V7.82338H35.8548V6.34805Z" fill="#F9F7F8"/>
<path d="M35.8548 7.82339H34.3795V9.29873H35.8548V7.82339Z" fill="#F9F7F8"/>
<path d="M35.8548 9.29871H34.3795V10.774H35.8548V9.29871Z" fill="#F9F7F8"/>
<path d="M35.8548 10.774H34.3795V12.2494H35.8548V10.774Z" fill="#F9F7F8"/>
<path d="M35.8548 12.2494H34.3795V13.7247H35.8548V12.2494Z" fill="#F9F7F8"/>
<path d="M35.8548 13.7247H34.3795V15.2H35.8548V13.7247Z" fill="#F9F7F8"/>
<path d="M35.8548 21.1014H34.3795V22.5767H35.8548V21.1014Z" fill="#F9F7F8"/>
<path d="M35.8548 22.5767H34.3795V24.0521H35.8548V22.5767Z" fill="#F9F7F8"/>
<path d="M35.8548 27.0027H34.3795V28.4781H35.8548V27.0027Z" fill="#F9F7F8"/>
<path d="M35.8548 28.4781H34.3795V29.9534H35.8548V28.4781Z" fill="#F9F7F8"/>
<path d="M35.8548 31.4287H34.3795V32.904H35.8548V31.4287Z" fill="#F9F7F8"/>
<path d="M5.79773 1H1V5.91767" stroke="#F9F7F8" stroke-width="2"/>
<path d="M39.4814 5.79773L39.4814 1L34.5638 1" stroke="#F9F7F8" stroke-width="2"/>
<path d="M1 33.2729L1 38.0706L5.91767 38.0706" stroke="#F9F7F8" stroke-width="2"/>
<path d="M34.5638 38.1906L39.3616 38.1906L39.3616 33.2729" stroke="#F9F7F8" stroke-width="2"/>
</svg>
