<svg width="32" height="31" viewBox="0 0 32 31" fill="none" xmlns="http://www.w3.org/2000/svg">
<path fill-rule="evenodd" clip-rule="evenodd" d="M0.416748 15.5C0.416748 23.8533 7.39364 30.625 16.0001 30.625C24.6065 30.625 31.5834 23.8533 31.5834 15.5C31.5834 7.14669 24.6065 0.375 16.0001 0.375C7.39364 0.375 0.416748 7.14669 0.416748 15.5ZM28.7501 15.5C28.7501 22.3345 23.0417 27.875 16.0001 27.875C8.95845 27.875 3.25008 22.3345 3.25008 15.5C3.25008 8.66548 8.95845 3.125 16.0001 3.125C23.0417 3.125 28.7501 8.66548 28.7501 15.5ZM16.0005 22.3727C16.7832 22.3727 17.4177 21.7571 17.4177 20.9977C17.4177 20.2383 16.7832 19.6227 16.0005 19.6227C15.2179 19.6227 14.5834 20.2383 14.5834 20.9977C14.5834 21.7571 15.2179 22.3727 16.0005 22.3727ZM14.5834 18.25H17.4167C17.4167 17.1523 17.5944 16.9511 18.7586 16.3861C20.7819 15.4042 21.6667 14.4023 21.6667 12.0625C21.6667 9.06586 19.2362 7.25 16.0001 7.25C12.8705 7.25 10.3334 9.71243 10.3334 12.75H13.1667C13.1667 11.2312 14.4353 10 16.0001 10C17.8094 10 18.8334 10.7651 18.8334 12.0625C18.8334 13.1602 18.6557 13.3614 17.4915 13.9264C15.4682 14.9083 14.5834 15.9102 14.5834 18.25Z" fill="white"/>
</svg>
