<svg width="12" height="14" viewBox="0 0 12 14" fill="none" xmlns="http://www.w3.org/2000/svg">
<path fill-rule="evenodd" clip-rule="evenodd" d="M6 13.6078L6.38367 13.2727C9.61007 10.4555 11.25 7.99562 11.25 5.83334C11.25 2.77123 8.86005 0.583344 6 0.583344C3.13995 0.583344 0.75 2.77123 0.75 5.83334C0.75 7.99562 2.38993 10.4555 5.61633 13.2727L6 13.6078ZM6 12.0537C3.26219 9.58625 1.91667 7.4954 1.91667 5.83334C1.91667 3.43969 3.7624 1.75001 6 1.75001C8.2376 1.75001 10.0833 3.43969 10.0833 5.83334C10.0833 7.4954 8.73781 9.58625 6 12.0537ZM6 2.91668C7.61083 2.91668 8.91667 4.22251 8.91667 5.83334C8.91667 7.44417 7.61083 8.75001 6 8.75001C4.38917 8.75001 3.08333 7.44417 3.08333 5.83334C3.08333 4.22251 4.38917 2.91668 6 2.91668ZM4.25 5.83334C4.25 4.86684 5.0335 4.08334 6 4.08334C6.9665 4.08334 7.75 4.86684 7.75 5.83334C7.75 6.79984 6.9665 7.58334 6 7.58334C5.0335 7.58334 4.25 6.79984 4.25 5.83334Z" fill="white"/>
</svg>
