<svg width="21" height="19" viewBox="0 0 21 19" fill="none" xmlns="http://www.w3.org/2000/svg">
<path fill-rule="evenodd" clip-rule="evenodd" d="M2.83329 15.25V2.79167H14.3333V15.25C14.3333 15.586 14.3909 15.9086 14.4969 16.2083H3.79163C3.26235 16.2083 2.83329 15.7793 2.83329 15.25ZM17.2083 18.125H3.79163C2.20381 18.125 0.916626 16.8378 0.916626 15.25V0.875H14.3333H15.2916H16.25L16.25 5.66667H20.0833L20.0833 6.625L20.0833 7.58333L20.0833 15.25C20.0833 16.8378 18.7961 18.125 17.2083 18.125ZM16.25 7.58333H18.1666V15.25C18.1666 15.7793 17.7376 16.2083 17.2083 16.2083C16.679 16.2083 16.25 15.7793 16.25 15.25L16.25 7.58333ZM8.58329 4.70833V8.54167H4.74996V4.70833H8.58329ZM12.4166 7.58333V5.66667H9.54163V7.58333H12.4166ZM12.4166 9.5V11.4167H4.74996V9.5H12.4166ZM12.4166 14.2917V12.375H4.74996V14.2917H12.4166Z" fill="url(#paint0_linear)"/>
<defs>
<linearGradient id="paint0_linear" x1="10.5" y1="0.875" x2="10.5" y2="18.125" gradientUnits="userSpaceOnUse">
<stop stop-color="#2482CA"/>
<stop offset="1" stop-color="#7765B7"/>
</linearGradient>
</defs>
</svg>
