<svg width="21" height="19" viewBox="0 0 21 19" fill="none" xmlns="http://www.w3.org/2000/svg">
<path fill-rule="evenodd" clip-rule="evenodd" d="M2.83335 15.25V2.79167H14.3334V15.25C14.3334 15.586 14.391 15.9086 14.4969 16.2083H3.79169C3.26241 16.2083 2.83335 15.7793 2.83335 15.25ZM17.2084 18.125H3.79169C2.20387 18.125 0.916687 16.8378 0.916687 15.25V0.875H14.3334H15.2917H16.25L16.25 5.66667H20.0834L20.0834 6.625L20.0834 7.58333L20.0834 15.25C20.0834 16.8378 18.7962 18.125 17.2084 18.125ZM16.25 7.58333H18.1667V15.25C18.1667 15.7793 17.7376 16.2083 17.2084 16.2083C16.6791 16.2083 16.25 15.7793 16.25 15.25L16.25 7.58333ZM8.58335 4.70833V8.54167H4.75002V4.70833H8.58335ZM12.4167 7.58333V5.66667H9.54169V7.58333H12.4167ZM12.4167 9.5V11.4167H4.75002V9.5H12.4167ZM12.4167 14.2917V12.375H4.75002V14.2917H12.4167Z" fill="#A6AAB4"/>
</svg>
