<svg width="19" height="19" viewBox="0 0 19 19" fill="none" xmlns="http://www.w3.org/2000/svg">
<path fill-rule="evenodd" clip-rule="evenodd" d="M9.69991 18.2083C4.89043 18.2083 0.991577 14.3095 0.991577 9.49999C0.991577 4.69051 4.89043 0.791656 9.69991 0.791656C14.5094 0.791656 18.4082 4.69051 18.4082 9.49999C18.4082 14.3095 14.5094 18.2083 9.69991 18.2083ZM15.5579 13.557C16.3567 12.4056 16.8249 11.0075 16.8249 9.49999C16.8249 5.56496 13.6349 2.37499 9.69991 2.37499C5.76488 2.37499 2.57491 5.56496 2.57491 9.49999C2.57491 11.0075 3.0431 12.4057 3.842 13.557C4.73297 12.3801 6.82666 11.875 9.69996 11.875C12.5732 11.875 14.6669 12.3801 15.5579 13.557ZM14.422 14.8356C14.1902 14.0025 12.5257 13.4583 9.69996 13.4583C6.87416 13.4583 5.20958 14.0025 4.97791 14.8357C6.23506 15.9491 7.88855 16.625 9.69991 16.625C11.5113 16.625 13.1648 15.949 14.422 14.8356ZM9.69991 4.74999C7.78336 4.74999 6.53324 6.13997 6.53324 7.91666C6.53324 10.63 7.92726 11.875 9.69991 11.875C11.4559 11.875 12.8666 10.6714 12.8666 8.07499C12.8666 6.27124 11.6111 4.74999 9.69991 4.74999ZM8.11658 7.91666C8.11658 9.71315 8.76433 10.2917 9.69991 10.2917C10.6323 10.2917 11.2832 9.73622 11.2832 8.07499C11.2832 7.08574 10.6623 6.33332 9.69991 6.33332C8.69745 6.33332 8.11658 6.97918 8.11658 7.91666Z" fill="#A6AAB4"/>
</svg>
