<svg width="19" height="19" viewBox="0 0 19 19" fill="none" xmlns="http://www.w3.org/2000/svg">
<path fill-rule="evenodd" clip-rule="evenodd" d="M9.70003 18.3283C4.89055 18.3283 0.991699 14.4294 0.991699 9.61992C0.991699 4.81044 4.89055 0.911591 9.70003 0.911591C14.5095 0.911591 18.4084 4.81044 18.4084 9.61992C18.4084 14.4294 14.5095 18.3283 9.70003 18.3283ZM15.558 13.6769C16.3569 12.5256 16.825 11.1274 16.825 9.61992C16.825 5.6849 13.6351 2.49492 9.70003 2.49492C5.765 2.49492 2.57503 5.6849 2.57503 9.61992C2.57503 11.1274 3.04322 12.5256 3.84212 13.677C4.73309 12.5001 6.82678 11.9949 9.70008 11.9949C12.5733 11.9949 14.667 12.5001 15.558 13.6769ZM14.4221 14.9555C14.1904 14.1224 12.5258 13.5783 9.70008 13.5783C6.87428 13.5783 5.2097 14.1224 4.97803 14.9556C6.23518 16.069 7.88867 16.7449 9.70003 16.7449C11.5114 16.7449 13.165 16.069 14.4221 14.9555ZM9.70003 4.86992C7.78349 4.86992 6.53337 6.2599 6.53337 8.03659C6.53337 10.7499 7.92738 11.9949 9.70003 11.9949C11.456 11.9949 12.8667 10.7913 12.8667 8.19492C12.8667 6.39117 11.6113 4.86992 9.70003 4.86992ZM8.1167 8.03659C8.1167 9.83309 8.76445 10.4116 9.70003 10.4116C10.6324 10.4116 11.2834 9.85615 11.2834 8.19492C11.2834 7.20567 10.6624 6.45326 9.70003 6.45326C8.69758 6.45326 8.1167 7.09912 8.1167 8.03659Z" fill="url(#paint0_linear)"/>
<defs>
<linearGradient id="paint0_linear" x1="9.70003" y1="0.911591" x2="9.70003" y2="18.3283" gradientUnits="userSpaceOnUse">
<stop stop-color="#2482CA"/>
<stop offset="1" stop-color="#7765B7"/>
</linearGradient>
</defs>
</svg>
