<svg width="58" height="42" viewBox="0 0 58 42" fill="none" xmlns="http://www.w3.org/2000/svg">
<path fill-rule="evenodd" clip-rule="evenodd" d="M57.4166 36.5C57.4166 39.3534 55.1034 41.6666 52.2499 41.6666H5.74992C2.89645 41.6666 0.583252 39.3534 0.583252 36.5V28.4608L1.87304 27.7147C4.25449 26.3371 5.74992 23.8002 5.74992 21C5.74992 18.1997 4.25449 15.6628 1.87304 14.2852L0.583252 13.5391V5.49998C0.583252 2.64651 2.89645 0.333313 5.74992 0.333313H52.2499C55.1034 0.333313 57.4166 2.64651 57.4166 5.49998V13.5391L56.1268 14.2852C53.7453 15.6628 52.2499 18.1997 52.2499 21C52.2499 23.8002 53.7453 26.3371 56.1268 27.7147L57.4166 28.4608V36.5ZM47.0833 21C47.0833 16.8653 49.044 13.0701 52.2499 10.6653V5.49998L36.7499 5.49998C36.7499 6.92671 35.5933 8.08331 34.1666 8.08331C32.7398 8.08331 31.5833 6.92671 31.5833 5.49998L5.74992 5.49998V10.6653C8.95585 13.0701 10.9166 16.8653 10.9166 21C10.9166 25.1346 8.95585 28.9298 5.74992 31.3347V36.5H31.5833C31.5833 35.0732 32.7398 33.9166 34.1666 33.9166C35.5933 33.9166 36.7499 35.0732 36.7499 36.5H52.2499V31.3347C49.044 28.9298 47.0833 25.1346 47.0833 21ZM34.1666 31.3333C35.5933 31.3333 36.7499 30.1767 36.7499 28.75C36.7499 27.3232 35.5933 26.1666 34.1666 26.1666C32.7398 26.1666 31.5833 27.3232 31.5833 28.75C31.5833 30.1767 32.7398 31.3333 34.1666 31.3333ZM36.7499 21C36.7499 22.4267 35.5933 23.5833 34.1666 23.5833C32.7398 23.5833 31.5833 22.4267 31.5833 21C31.5833 19.5732 32.7398 18.4166 34.1666 18.4166C35.5933 18.4166 36.7499 19.5732 36.7499 21ZM34.1666 15.8333C35.5933 15.8333 36.7499 14.6767 36.7499 13.25C36.7499 11.8232 35.5933 10.6666 34.1666 10.6666C32.7398 10.6666 31.5833 11.8232 31.5833 13.25C31.5833 14.6767 32.7398 15.8333 34.1666 15.8333Z" fill="url(#paint0_linear)"/>
<defs>
<linearGradient id="paint0_linear" x1="28.9999" y1="0.333313" x2="28.9999" y2="41.6666" gradientUnits="userSpaceOnUse">
<stop stop-color="#2482CA"/>
<stop offset="1" stop-color="#7765B7"/>
</linearGradient>
</defs>
</svg>
