<svg width="21" height="20" viewBox="0 0 21 20" fill="none" xmlns="http://www.w3.org/2000/svg">
<path fill-rule="evenodd" clip-rule="evenodd" d="M13.8068 0.402662C14.8246 0.0992138 15.8855 0.714198 16.1763 1.77627C16.2252 1.95495 16.25 2.13988 16.25 2.32571L16.25 3.99998H18.1667C19.2252 3.99998 20.0834 4.89541 20.0834 5.99998V18C20.0834 19.1045 19.2252 20 18.1667 20H2.83335C1.77481 20 0.916687 19.1045 0.916687 18H0.942278C0.925266 17.8924 0.916687 17.7835 0.916687 17.6742V5.75428C0.916687 4.86132 1.48398 4.07655 2.3068 3.83123L13.8068 0.402662ZM8.71757 18H18.1667V9.99997H16.25V14.2457C16.25 15.1386 15.6827 15.9234 14.8599 16.1687L8.71757 18ZM18.1667 5.99998V7.99997H16.25L16.25 5.99998H18.1667ZM2.83335 5.75425V17.6742L14.3334 14.2456V2.32568L2.83335 5.75425ZM12.4167 7.99998C12.4167 8.55226 11.9876 8.99998 11.4584 8.99998C10.9291 8.99998 10.5 8.55226 10.5 7.99998C10.5 7.4477 10.9291 6.99998 11.4584 6.99998C11.9876 6.99998 12.4167 7.4477 12.4167 7.99998Z" fill="url(#paint0_linear)"/>
<defs>
<linearGradient id="paint0_linear" x1="10.5" y1="0.325195" x2="10.5" y2="20" gradientUnits="userSpaceOnUse">
<stop stop-color="#2482CA"/>
<stop offset="1" stop-color="#7765B7"/>
</linearGradient>
</defs>
</svg>
