<svg width="20" height="18" viewBox="0 0 20 18" fill="none" xmlns="http://www.w3.org/2000/svg">
<path fill-rule="evenodd" clip-rule="evenodd" d="M13.315 0.902194C14.2885 0.63919 15.3032 1.17221 15.5814 2.09272C15.6282 2.24759 15.6519 2.40787 15.6519 2.56893L15.6519 4.02004H17.4852C18.4977 4.02004 19.3186 4.79613 19.3186 5.75348V16.1541C19.3186 17.1114 18.4977 17.8875 17.4852 17.8875H2.81877C1.80626 17.8875 0.985458 17.1114 0.985458 16.1541H1.00994C0.993664 16.0609 0.985458 15.9665 0.985458 15.8718V5.54053C0.985458 4.76659 1.52808 4.08641 2.31512 3.8738L13.315 0.902194ZM8.44709 16.1541H17.4852V9.22036H15.6519L15.6519 12.9002C15.6519 13.6741 15.1093 14.3543 14.3223 14.5669L8.44709 16.1541ZM17.4852 5.75348V7.48692H15.6519L15.6519 5.75348H17.4852ZM2.81877 5.5405V15.8717L13.8186 12.9001V2.5689L2.81877 5.5405ZM11.9853 7.4869C11.9853 7.96558 11.5749 8.35362 11.0687 8.35362C10.5624 8.35362 10.152 7.96558 10.152 7.4869C10.152 7.00823 10.5624 6.62019 11.0687 6.62019C11.5749 6.62019 11.9853 7.00823 11.9853 7.4869Z" fill="#A6AAB4"/>
</svg>
